<svg version="1.0" xmlns="http://www.w3.org/2000/svg"
 width="100%" height="100%" viewBox="0 0 1032 267"
 preserveAspectRatio="xMidYMid meet">
<g transform="translate(0.000000,269.000000) scale(0.100000,-0.100000)"
fill="#000000" stroke="none">
<path d="M0 1345 l0 -1345 5180 0 5180 0 0 1345 0 1345 -5180 0 -5180 0 0
-1345z m2625 1234 c-4 -6 -144 -208 -312 -450 -187 -271 -302 -446 -299 -455
3 -8 82 -120 176 -249 93 -129 170 -237 170 -240 0 -3 -15 -5 -33 -5 -31 0
-40 10 -196 225 -117 162 -166 223 -174 216 -7 -5 -82 -107 -167 -225 -147
-204 -157 -215 -187 -216 -18 0 -33 3 -33 6 0 6 119 171 267 372 46 62 83 117
83 123 0 6 -74 113 -165 240 l-165 229 34 0 c33 0 39 -7 186 -210 83 -115 152
-210 154 -210 2 0 61 79 132 176 71 97 171 231 223 298 240 307 338 427 306
375z m3384 -439 c11 -5 33 -27 48 -47 23 -30 28 -48 31 -107 2 -59 -1 -78 -20
-111 -26 -45 -93 -85 -143 -85 -17 0 -51 10 -75 23 -131 66 -114 302 25 340
28 8 111 0 134 -13z m379 0 c33 -15 47 -29 62 -62 l19 -43 -35 -3 c-28 -3 -39
2 -60 27 -72 86 -180 -12 -145 -130 22 -73 98 -94 144 -39 18 21 35 30 56 30
41 0 41 -28 1 -74 -75 -85 -213 -66 -266 36 -20 39 -21 146 -1 184 45 86 134
115 225 74z m678 1 c63 -29 88 -72 92 -156 2 -58 -1 -77 -20 -110 -26 -45 -93
-85 -143 -85 -50 0 -117 40 -142 85 -42 75 -25 194 35 248 42 39 116 46 178
18z m1398 5 c61 -25 83 -85 52 -144 -8 -15 -40 -52 -71 -82 l-56 -55 73 -5 73
-5 0 -30 0 -30 -125 0 -125 0 -2 30 c-1 26 9 40 71 95 40 36 81 79 91 97 18
29 18 33 2 57 -24 36 -60 34 -89 -4 -40 -54 -99 -29 -67 29 17 31 73 61 112
61 15 0 43 -6 61 -14z m815 -13 c30 -23 46 -70 37 -109 -4 -15 -37 -58 -73
-95 l-65 -68 73 -3 c69 -3 74 -4 77 -27 2 -13 -2 -28 -10 -32 -7 -5 -66 -9
-130 -9 l-118 0 0 31 c0 25 14 43 81 107 92 86 107 113 84 148 -25 38 -70 31
-94 -13 -17 -33 -71 -33 -71 0 0 31 27 66 64 83 40 18 111 12 145 -13z m308 7
c48 -29 65 -63 70 -138 6 -85 -8 -140 -47 -177 -27 -26 -39 -30 -90 -30 -48 0
-63 4 -85 25 -40 36 -55 80 -55 157 0 81 20 128 69 160 42 28 95 30 138 3z
m318 6 c19 -8 41 -28 50 -46 27 -53 13 -91 -62 -170 l-65 -70 71 0 71 0 0 -35
0 -36 -122 3 -123 3 -3 29 c-3 25 8 39 83 109 80 74 86 82 83 115 -2 19 -10
39 -19 45 -24 15 -64 1 -77 -28 -15 -33 -72 -37 -72 -4 0 75 99 121 185 85z
m344 -13 c42 -31 61 -80 61 -156 0 -76 -15 -121 -53 -156 -55 -50 -170 -33
-203 30 -55 107 -24 264 60 300 32 13 105 4 135 -18z m-9991 -173 c608 -906
831 -1240 827 -1240 -2 0 -84 107 -182 237 -161 214 -275 376 -643 913 -62 91
-121 174 -131 185 -19 19 -19 10 -19 -428 l0 -447 -30 0 -30 0 0 486 0 485 42
-3 41 -3 125 -185z m1270 168 l-3 -23 -298 -3 -297 -2 2 -193 3 -192 278 -3
277 -2 0 -25 0 -25 -280 0 -280 0 0 -215 0 -215 300 0 300 0 0 -25 0 -25 -330
0 -330 0 0 485 0 485 331 0 330 0 -3 -22z m1610 0 c-3 -23 -5 -23 -170 -26
l-168 -2 -2 -458 -3 -457 -30 0 -30 0 -3 457 -2 458 -168 2 c-165 3 -167 3
-170 26 l-3 22 376 0 376 0 -3 -22z m1063 12 c42 -12 85 -54 94 -92 7 -27 5
-28 -29 -28 -26 0 -38 6 -47 23 -16 30 -28 37 -71 37 -50 0 -78 -35 -78 -101
0 -59 15 -93 47 -108 39 -18 63 -13 93 19 28 30 72 40 85 20 11 -17 -28 -72
-65 -91 -112 -60 -234 19 -235 151 0 77 27 129 85 158 49 24 68 26 121 12z
m369 -6 c57 -23 90 -81 90 -160 0 -110 -57 -174 -155 -174 -98 0 -155 64 -155
174 0 76 28 128 84 156 50 24 83 25 136 4z m2230 -14 c0 -30 -1 -30 -55 -30
l-55 0 0 -144 c0 -80 -3 -147 -8 -149 -4 -3 -19 -3 -35 0 l-27 5 0 128 c0 71
-3 135 -6 144 -4 12 -20 16 -55 16 -48 0 -49 1 -49 30 l0 30 145 0 145 0 0
-30z m633 18 c33 -17 46 -39 47 -75 0 -33 -28 -73 -51 -73 -7 0 3 -10 22 -23
29 -19 34 -29 37 -69 3 -40 -1 -48 -27 -71 -32 -27 -116 -42 -196 -35 l-40 3
-3 178 -2 177 95 0 c54 0 106 -5 118 -12z m355 -15 c-3 -28 -4 -28 -85 -31
l-83 -3 0 -39 0 -40 75 0 75 0 0 -35 0 -35 -75 0 -75 0 0 -40 0 -39 83 -3 c81
-3 82 -3 85 -30 l3 -28 -78 -2 c-43 0 -91 -2 -108 -4 -67 -6 -65 -11 -65 182
l0 174 126 0 125 0 -3 -27z m279 7 c59 -36 64 -120 10 -178 l-21 -23 32 -58
c41 -76 41 -83 -5 -79 -35 3 -40 7 -71 66 -29 54 -37 62 -62 62 -29 0 -29 -1
-32 -62 -3 -63 -3 -63 -35 -66 l-33 -3 0 180 0 181 93 0 c74 0 98 -4 124 -20z
m763 -10 c0 -18 -31 -92 -74 -178 -74 -147 -74 -148 -110 -150 -20 -2 -36 0
-36 3 0 3 32 69 70 147 39 78 70 143 70 145 0 1 -37 3 -82 5 -82 3 -83 3 -86
31 l-3 27 125 0 126 0 0 -30z m-3971 -87 l71 -108 0 108 0 107 40 0 40 0 -2
-167 -3 -168 -31 -3 c-28 -3 -35 4 -105 105 l-74 108 -3 -107 -3 -108 -34 0
-35 0 0 170 0 170 34 0 c31 0 37 -6 105 -107z m429 80 c-3 -27 -5 -28 -75 -31
l-73 -3 0 -39 0 -40 71 0 70 0 -3 -27 c-3 -27 -5 -28 -70 -31 l-67 -3 -3 -67
-3 -67 -32 -3 -33 -3 0 170 0 171 111 0 110 0 -3 -27z m3609 -305 c-8 -69 -23
-98 -51 -98 -23 0 -24 2 -15 32 5 18 9 47 9 64 0 37 6 44 38 44 23 0 24 -3 19
-42z m-4150 -238 c52 -30 103 -96 103 -133 0 -31 17 -17 34 28 20 51 81 108
134 126 52 17 125 6 179 -27 60 -36 103 -114 103 -184 0 -64 -40 -140 -92
-176 -57 -40 -157 -46 -222 -14 -55 26 -91 67 -107 120 -13 44 -24 44 -32 0
-4 -16 -25 -50 -48 -75 -98 -107 -263 -92 -346 31 -37 54 -43 147 -13 208 56
117 195 160 307 96z m1253 -11 c59 -33 83 -85 78 -172 -5 -115 -58 -169 -165
-171 -38 0 -60 5 -80 20 -112 83 -108 265 7 325 47 25 113 24 160 -2z m281
-89 c41 -60 77 -110 82 -110 4 0 7 50 7 110 l0 110 35 0 35 0 0 -180 0 -180
-33 0 c-32 0 -38 7 -108 111 l-74 110 -3 -110 -3 -111 -39 0 -40 0 0 180 0
180 33 0 c32 0 38 -7 108 -110z m299 -40 l0 -150 75 0 75 0 0 -30 0 -31 -112
3 -113 3 -3 165 c-1 90 0 170 2 177 3 7 21 13 41 13 l35 0 0 -150z m280 -30
l0 -180 -40 0 -40 0 0 173 c0 96 3 177 7 180 3 4 21 7 40 7 l33 0 0 -180z
m201 70 c41 -60 77 -110 82 -110 4 0 7 50 7 110 l0 110 35 0 35 0 0 -180 0
-180 -33 0 c-31 0 -38 7 -101 100 -37 55 -72 102 -77 105 -5 4 -9 -37 -9 -99
l0 -106 -40 0 -40 0 0 173 c0 96 3 177 7 180 3 4 18 7 33 7 22 0 37 -17 101
-110z m459 75 l0 -35 -80 0 -80 0 0 -40 0 -40 75 0 75 0 0 -30 0 -30 -75 0
-75 0 0 -45 0 -44 83 -3 c80 -3 82 -4 82 -28 l0 -25 -122 -3 -123 -3 0 174 c0
96 3 177 7 180 3 4 57 7 120 7 l113 0 0 -35z m-3436 2 c-2 -7 -18 -18 -35 -24
-27 -11 -29 -10 -18 4 11 12 35 26 56 32 1 1 0 -5 -3 -12z m173 -38 c11 -4 33
-23 47 -42 73 -95 -6 -240 -123 -224 -62 9 -72 13 -95 40 -13 15 -27 27 -31
27 -4 0 -13 7 -20 17 -7 9 -17 13 -24 9 -9 -6 -8 -14 4 -33 9 -13 15 -32 13
-41 -2 -12 -8 -9 -22 13 -23 35 -36 165 -16 165 7 0 10 7 7 14 -4 10 -1 13 9
9 14 -5 18 -20 14 -62 -1 -16 3 -22 12 -19 8 3 13 19 12 43 -1 20 2 32 5 26 5
-7 19 4 37 28 16 22 32 37 35 35 3 -2 19 1 35 5 29 9 58 6 101 -10z m-751 -70
c24 -27 9 -36 -25 -16 -29 17 -66 13 -75 -8 -6 -17 8 -27 65 -49 50 -18 64
-41 49 -81 -10 -26 -67 -49 -96 -39 -27 10 -54 35 -54 51 0 17 20 17 34 -1 17
-22 50 -27 72 -12 26 20 9 47 -37 59 -64 16 -84 51 -54 94 25 35 90 36 121 2z
m-186 -67 c0 -96 -8 -117 -52 -127 -21 -6 -33 -1 -54 20 -20 20 -24 29 -15 38
10 9 16 8 26 -6 8 -11 23 -17 37 -15 22 3 23 7 26 91 2 68 6 87 17 87 12 0 15
-17 15 -88z m-170 -102 c0 -21 -24 -28 -35 -10 -8 14 3 30 21 30 8 0 14 -9 14
-20z m914 -46 c3 -8 2 -12 -4 -9 -6 3 -10 10 -10 16 0 14 7 11 14 -7z m2584
-737 c2 -12 -3 -17 -17 -17 -12 0 -21 6 -21 13 0 31 32 34 38 4z m1158 6 c-2
-10 -24 -88 -47 -173 -23 -85 -46 -159 -50 -164 -23 -26 -16 17 27 178 33 124
51 176 61 176 9 0 12 -7 9 -17z m892 5 c-3 -7 -15 -15 -29 -18 -19 -5 -24 -12
-24 -35 0 -23 5 -31 23 -33 30 -5 28 -22 -3 -22 l-25 0 0 -100 c0 -82 -3 -100
-15 -100 -12 0 -15 18 -15 100 0 93 -1 100 -20 100 -11 0 -20 4 -20 9 0 5 9
11 20 14 14 4 20 14 20 35 0 17 7 38 16 46 19 19 78 22 72 4z m-6612 -95 c20
-38 68 -121 105 -186 38 -65 69 -120 69 -122 0 -3 -99 -5 -220 -5 -121 0 -220
2 -220 5 0 3 37 67 83 142 45 76 93 159 107 186 14 26 28 47 32 47 4 0 24 -30
44 -67z m4426 40 c2 -16 9 -29 16 -29 29 -3 32 -4 32 -14 0 -5 -11 -10 -25
-10 -24 0 -25 -2 -25 -69 0 -82 6 -101 31 -101 10 0 19 -7 19 -15 0 -19 -30
-19 -58 1 -20 14 -22 24 -22 100 0 77 -2 84 -20 84 -11 0 -20 4 -20 9 0 5 9
11 20 14 14 3 20 14 20 31 0 36 28 34 32 -1z m-4182 -3 c4 0 31 -40 59 -90 29
-49 55 -90 59 -90 4 0 31 43 60 95 39 68 59 95 73 95 10 0 19 -3 19 -6 0 -11
-139 -252 -149 -258 -5 -4 -112 168 -151 243 -11 21 -10 23 5 18 9 -4 20 -7
25 -7z m1240 -125 c0 -113 -2 -135 -15 -135 -13 0 -15 22 -15 135 0 113 2 135
15 135 13 0 15 -22 15 -135z m-3482 67 l3 -52 70 0 69 0 0 55 c0 30 5 55 10
55 6 0 10 -48 10 -125 0 -72 -4 -125 -10 -125 -5 0 -10 26 -12 58 l-3 57 -67
3 -68 3 0 -61 c0 -47 -3 -60 -15 -60 -13 0 -15 21 -15 126 0 96 3 125 13 122
7 -3 13 -26 15 -56z m1082 -67 c0 -77 -4 -125 -10 -125 -5 0 -10 7 -10 15 0 8
-4 15 -9 15 -5 0 -14 -7 -21 -15 -17 -21 -56 -19 -79 4 -43 43 -35 125 14 157
22 15 29 15 53 3 15 -7 30 -15 35 -17 4 -2 7 14 7 36 0 34 6 52 17 52 2 0 3
-56 3 -125z m203 50 c31 21 54 19 82 -10 19 -18 25 -35 25 -70 0 -74 -57 -117
-106 -80 -17 13 -16 14 17 8 30 -4 39 -1 53 18 34 50 9 119 -44 119 -37 0 -52
-27 -49 -83 3 -64 0 -77 -16 -77 -12 0 -15 20 -15 119 0 87 3 120 13 124 8 2
13 -10 15 -40 3 -42 4 -43 25 -28z m-635 30 c6 -14 16 -25 22 -25 5 0 10 -4
10 -10 0 -5 -9 -10 -20 -10 -18 0 -20 -7 -20 -55 0 -48 4 -60 26 -80 25 -23
26 -25 6 -25 -38 0 -52 26 -52 96 0 50 -3 64 -15 64 -8 0 -15 4 -15 9 0 5 7
11 15 15 8 3 15 15 15 26 0 28 14 25 28 -5z m5166 4 c25 -19 26 -25 26 -115 0
-87 -1 -94 -20 -94 -18 0 -20 7 -20 88 0 96 -7 112 -51 112 -48 0 -59 -22 -59
-116 0 -68 -3 -84 -15 -84 -12 0 -15 19 -15 110 0 107 4 122 27 99 8 -8 17 -7
34 5 31 22 61 20 93 -5z m253 -11 c15 -14 23 -33 23 -55 l0 -33 -80 0 c-78 0
-80 -1 -80 -24 0 -27 42 -66 70 -66 10 0 28 9 42 19 14 12 29 16 37 12 9 -6 5
-14 -15 -30 -35 -27 -93 -28 -127 -1 -65 51 -47 188 27 203 36 8 79 -2 103
-25z m692 11 c31 -19 33 -22 17 -31 -13 -7 -21 -5 -30 7 -16 22 -63 23 -84 2
-21 -22 -2 -44 52 -58 50 -13 76 -35 76 -63 0 -41 -36 -66 -93 -66 -42 0 -88
33 -70 50 8 9 16 7 32 -9 35 -35 91 -20 91 24 0 21 -8 27 -51 39 -28 9 -58 21
-65 27 -19 16 -17 53 4 71 37 33 75 35 121 7z m342 6 c35 -18 49 -50 49 -107
0 -80 -69 -128 -141 -97 -75 30 -78 173 -5 205 41 17 61 17 97 -1z m219 1 c0
-7 -13 -16 -29 -19 -36 -8 -51 -46 -51 -133 0 -50 -3 -64 -15 -64 -12 0 -15
19 -15 110 0 91 3 110 15 110 8 0 15 -7 15 -15 0 -20 6 -19 30 5 23 23 50 26
50 6z m164 -7 c23 -18 27 -18 32 -5 3 9 13 16 21 16 12 0 14 -21 11 -135 -4
-163 -8 -170 -99 -170 -49 0 -63 4 -75 20 -13 18 -13 20 2 23 9 2 21 -1 27 -7
15 -15 80 -14 95 1 7 7 12 29 12 51 0 37 0 38 -22 23 -62 -43 -138 5 -138 87
0 52 18 88 50 104 35 18 53 16 84 -8z m412 11 c26 -10 53 -36 54 -52 0 -15
-27 -8 -45 12 -21 23 -63 26 -89 7 -26 -19 -33 -99 -12 -132 19 -29 75 -35 96
-10 7 8 22 15 34 15 19 -1 18 -3 -12 -30 -44 -41 -93 -41 -132 -1 -38 37 -47
75 -29 125 10 30 24 46 49 58 41 21 49 22 86 8z m270 -21 c31 -29 41 -96 20
-137 -56 -108 -196 -68 -196 56 0 43 28 87 64 103 31 13 86 3 112 -22z m155
13 c23 17 34 20 61 12 45 -13 58 -44 58 -141 0 -76 -2 -83 -20 -83 -18 0 -20
7 -20 88 0 98 -7 112 -57 112 -47 0 -61 -28 -61 -120 1 -62 -2 -76 -15 -78
-15 -3 -17 10 -17 106 0 60 3 112 7 116 5 4 14 -2 21 -13 l14 -20 29 21z
m-2126 -29 c11 -20 25 -38 31 -40 6 -2 19 15 29 37 12 27 24 40 38 40 21 0 19
-3 -33 -86 -11 -19 -9 -26 17 -65 46 -67 46 -69 26 -69 -11 0 -29 18 -46 46
-15 25 -31 42 -37 39 -5 -3 -19 -23 -31 -45 -13 -22 -29 -40 -36 -40 -19 0
-17 8 18 62 34 53 34 57 -11 126 -21 30 -21 32 -3 32 11 0 26 -15 38 -37z
m365 -96 c0 -141 -4 -153 -52 -170 -23 -8 -25 28 -3 37 12 4 15 29 15 136 0
123 1 130 20 130 19 0 20 -7 20 -133z m-6217 83 c51 -40 43 -137 -13 -160 -59
-25 -112 15 -112 84 0 80 67 121 125 76z m195 4 c32 -22 17 -37 -19 -19 -22
12 -34 13 -50 5 -33 -18 -18 -42 36 -59 42 -13 51 -20 53 -43 6 -52 -73 -77
-119 -38 -18 14 -20 19 -8 20 8 0 20 -5 26 -11 6 -6 23 -9 39 -7 23 2 29 8 29
28 0 19 -7 26 -35 35 -51 15 -60 23 -60 55 0 22 6 31 28 38 39 15 55 14 80 -4z
m319 -7 c7 -7 15 -27 19 -45 l7 -32 -67 0 c-59 0 -66 -2 -66 -19 0 -42 68 -69
98 -39 13 13 27 5 18 -11 -11 -18 -76 -25 -102 -11 -28 15 -48 76 -38 115 10
39 52 68 89 61 16 -4 35 -12 42 -19z m608 -29 c8 -29 21 -66 28 -82 13 -29 13
-28 36 47 14 42 30 78 38 81 17 7 19 17 -22 -104 -40 -119 -58 -150 -85 -150
-23 0 -27 15 -6 23 33 13 34 40 5 127 -31 92 -34 110 -20 110 5 0 17 -24 26
-52z m1222 20 c13 -13 25 -37 26 -54 l2 -29 -87 -3 c-70 -2 -88 -6 -88 -18 0
-8 15 -22 34 -31 27 -13 40 -14 66 -4 20 7 38 7 49 1 13 -7 10 -11 -21 -24
-51 -22 -79 -20 -119 7 -47 32 -61 64 -48 111 21 75 129 101 186 44z m123 7
c0 -30 4 -31 30 -5 11 11 27 20 35 20 8 0 15 -9 15 -20 0 -13 -7 -20 -20 -20
-38 0 -60 -35 -60 -95 0 -48 -2 -55 -20 -55 -19 0 -20 7 -20 93 0 52 3 97 7
100 15 16 33 6 33 -18z m278 14 c17 -6 33 -16 36 -24 6 -17 -24 -29 -38 -15
-16 16 -83 12 -100 -6 -23 -22 -20 -74 6 -101 24 -26 55 -30 83 -9 11 8 25 12
32 9 42 -16 -36 -59 -90 -49 -44 8 -87 56 -87 96 0 87 69 130 158 99z m252 -4
c34 -18 50 -43 50 -79 0 -26 0 -26 -86 -26 -76 0 -85 -2 -82 -17 5 -29 56 -48
91 -35 18 7 36 8 46 3 12 -8 8 -13 -21 -26 -95 -46 -197 41 -158 136 23 54 99
75 160 44z m3547 -141 c8 -21 -13 -42 -28 -27 -13 13 -5 43 11 43 6 0 13 -7
17 -16z"/>
<path d="M5872 2073 c-26 -22 -42 -83 -35 -128 11 -71 86 -108 140 -70 50 35
54 145 8 191 -29 29 -83 32 -113 7z"/>
<path d="M6941 2073 c-46 -37 -46 -159 0 -195 11 -10 37 -18 56 -18 64 0 102
71 83 156 -11 48 -41 74 -85 74 -18 0 -43 -8 -54 -17z"/>
<path d="M9481 2079 c-39 -42 -39 -166 0 -208 26 -28 50 -27 79 4 33 35 35
149 4 192 -27 36 -56 40 -83 12z"/>
<path d="M10131 2079 c-39 -42 -39 -171 0 -210 25 -25 45 -24 74 6 22 21 25
33 25 100 0 67 -3 79 -25 100 -30 31 -48 31 -74 4z"/>
<path d="M4450 2060 c-42 -42 -39 -139 5 -177 36 -32 71 -29 107 7 29 29 30
34 26 92 -4 48 -9 65 -27 79 -31 25 -86 24 -111 -1z"/>
<path d="M7290 2050 c0 -48 15 -57 69 -44 33 8 36 12 36 44 l0 35 -52 3 -53 3
0 -41z"/>
<path d="M7290 1905 l0 -45 49 0 c72 0 103 37 63 73 -12 11 -36 17 -65 17
l-47 0 0 -45z"/>
<path d="M7920 2040 c0 -58 10 -66 66 -56 46 9 64 44 40 81 -14 21 -24 25 -61
25 l-45 0 0 -50z"/>
<path d="M5872 1503 c-23 -9 -42 -61 -42 -113 0 -44 5 -56 29 -81 69 -69 159
-7 149 103 -7 64 -37 98 -87 97 -20 0 -42 -3 -49 -6z"/>
<path d="M4117 1452 c-21 -22 -22 -52 -3 -52 7 0 16 14 20 32 8 39 4 43 -17
20z"/>
<path d="M4181 1447 c-16 -41 -14 -47 14 -47 29 0 34 24 11 56 -14 18 -15 18
-25 -9z"/>
<path d="M4246 1443 c9 -38 13 -43 30 -43 18 0 18 15 -2 45 -22 33 -36 32 -28
-2z"/>
<path d="M4097 1340 c3 -11 15 -26 26 -31 17 -10 19 -9 14 6 -4 9 -7 23 -7 31
0 8 -9 14 -19 14 -14 0 -18 -5 -14 -20z"/>
<path d="M4170 1351 c0 -5 5 -22 11 -38 10 -27 11 -27 25 -9 23 32 18 56 -11
56 -14 0 -25 -4 -25 -9z"/>
<path d="M4251 1329 c-15 -44 -14 -46 14 -19 28 26 33 50 11 50 -8 0 -19 -14
-25 -31z"/>
<path d="M1052 338 c-18 -18 -15 -94 4 -112 19 -20 58 -21 73 -3 21 26 24 75
7 102 -18 27 -63 34 -84 13z"/>
<path d="M6037 372 c-10 -10 -17 -26 -17 -35 0 -14 11 -17 65 -17 70 0 78 7
49 48 -19 28 -74 30 -97 4z"/>
<path d="M7094 369 c-12 -14 -19 -36 -19 -64 0 -54 25 -85 70 -85 46 0 69 37
62 98 -3 28 -12 51 -23 59 -27 19 -68 16 -90 -8z"/>
<path d="M7491 364 c-29 -37 -27 -89 4 -119 29 -30 58 -32 85 -5 27 27 28 110
2 133 -28 25 -67 21 -91 -9z"/>
<path d="M8138 373 c-22 -26 -30 -59 -23 -93 9 -42 31 -60 70 -60 48 0 70 36
66 108 -3 52 -80 83 -113 45z"/>
<path d="M342 330 c-30 -49 -4 -120 45 -120 44 0 69 71 43 121 -15 26 -71 26
-88 -1z"/>
<path d="M868 346 c-12 -6 -24 -22 -26 -34 -3 -20 1 -22 47 -22 54 0 67 10 52
39 -13 24 -43 32 -73 17z"/>
<path d="M2642 328 c-28 -28 -13 -38 53 -38 67 0 77 7 49 34 -18 19 -85 21
-102 4z"/>
<path d="M3351 341 c-13 -4 -30 -16 -39 -29 l-14 -22 71 0 c39 0 71 3 71 8 -1
28 -51 52 -89 43z"/>
</g>
</svg>
